<?xml version="1.0" standalone="no"?>
<!DOCTYPE svg PUBLIC "-//W3C//DTD SVG 20010904//EN"
 "http://www.w3.org/TR/2001/REC-SVG-20010904/DTD/svg10.dtd">
<svg version="1.0" xmlns="http://www.w3.org/2000/svg"
 width="270.000000pt" height="270.000000pt" viewBox="0 0 270.000000 270.000000"
 preserveAspectRatio="xMidYMid meet">
<metadata>
Created by potrace 1.11, written by Peter Selinger 2001-2013
</metadata>
<g transform="translate(0.000000,270.000000) scale(0.100000,-0.100000)"
fill="#000000" stroke="none">
<path d="M0 1350 l0 -1350 1350 0 1350 0 0 1350 0 1350 -1350 0 -1350 0 0
-1350z m1385 914 c32 -3 89 -15 125 -26 66 -20 214 -91 224 -106 2 -4 -33 -18
-79 -31 -80 -22 -86 -22 -132 -7 -203 68 -389 58 -568 -29 -238 -116 -387
-341 -402 -606 -6 -97 10 -229 28 -229 5 0 9 4 9 8 0 4 32 57 71 118 168 258
476 495 829 634 253 101 560 152 776 130 144 -15 168 -25 79 -34 -181 -18
-310 -44 -398 -81 l-38 -16 45 -62 c57 -80 97 -161 132 -267 26 -79 28 -97 28
-245 1 -155 0 -163 -32 -255 -40 -113 -75 -178 -152 -275 -149 -187 -405 -315
-631 -315 l-87 0 -47 63 -47 62 123 6 c199 10 287 35 410 114 188 121 299 293
330 508 29 195 -34 400 -174 572 l-25 29 -53 -28 c-187 -101 -423 -312 -531
-476 -120 -183 -167 -308 -175 -470 -9 -165 28 -274 127 -383 86 -94 176 -141
343 -177 l92 -20 -110 4 c-187 7 -325 60 -440 167 -185 173 -215 427 -84 708
138 297 461 592 816 747 43 18 73 34 66 34 -29 0 -230 -77 -339 -130 -482
-236 -802 -617 -821 -980 -6 -114 11 -195 62 -286 84 -150 227 -258 428 -324
37 -12 67 -24 67 -27 0 -9 -168 6 -245 22 -106 22 -226 86 -299 159 -113 113
-167 252 -171 441 -3 108 -6 126 -33 185 -88 194 -88 445 0 657 80 193 247
366 433 448 110 49 298 88 380 79 17 -2 57 -6 90 -10z"/>
</g>
</svg>
